<?xml version="1.0" encoding="iso-8859-1"?>
<!-- Uploaded to: SVG Repo, www.svgrepo.com, Generator: SVG Repo Mixer Tools -->
<!DOCTYPE svg PUBLIC "-//W3C//DTD SVG 1.1//EN" "http://www.w3.org/Graphics/SVG/1.1/DTD/svg11.dtd">
<svg fill="#000000" version="1.1" id="Capa_1" xmlns="http://www.w3.org/2000/svg" xmlns:xlink="http://www.w3.org/1999/xlink" 
	 width="800px" height="800px" viewBox="0 0 274.102 274.102"
	 xml:space="preserve">
<g>
	<path d="M121.072,265.448C91.706,226.423,31.949,142.14,31.949,102.52C31.949,45.895,81.539,0,138.152,0
		c56.635,0,104,45.895,104,102.52c0,40.899-59.699,124.365-89.147,163.037C144.299,276.995,129.716,276.941,121.072,265.448z
		 M136.925,37.668c-16.363,0-29.622,13.202-29.622,29.571c0,16.324,13.265,29.583,29.622,29.583
		c16.32,0,29.592-13.265,29.592-29.583C166.517,50.87,153.245,37.668,136.925,37.668z"/>
</g>
</svg>